<svg width="35" height="35" viewBox="0 0 35 35" fill="none" xmlns="http://www.w3.org/2000/svg">
<path d="M17.4995 0.000400892C15.2679 0.0189877 13.0489 0.458875 11.0001 1.30767C8.95129 2.15647 7.09793 3.43276 5.55976 4.99405C2.47712 8.12903 0.819179 12.4659 0.945258 16.7285C1.0083 18.8598 1.4937 20.9663 2.36995 22.8869C3.2399 24.8138 4.507 26.5485 6.03886 27.9921C9.09628 30.8917 13.2821 32.5521 17.4995 32.5273C21.7168 32.5521 25.9026 30.8917 28.9601 27.9921C30.4856 26.5423 31.7527 24.8138 32.6227 22.8869C33.4989 20.9663 33.9843 18.8598 34.0474 16.7285C34.1797 12.4659 32.5218 8.12903 29.4455 4.99405C27.9073 3.43896 26.0539 2.16266 24.0052 1.30767C21.9501 0.458875 19.7248 0.0189877 17.4995 0.000400892ZM17.4995 0.000400892C21.9627 -0.0305771 26.4007 1.73517 29.6283 4.80819C31.2421 6.34469 32.5785 8.17239 33.4989 10.2169C34.4256 12.2553 34.9299 14.4795 34.993 16.7285C35.1253 21.2327 33.3665 25.8175 30.1074 29.1259C28.481 30.7677 26.5204 32.1184 24.3582 33.0105C22.1959 33.9089 19.8445 34.3736 17.4932 34.386C15.1418 34.3736 12.7967 33.9027 10.6344 33.0105C8.47219 32.1122 6.51166 30.7677 4.88523 29.1259C1.63869 25.8113 -0.126415 21.2327 0.00596823 16.7285C0.0690079 14.4795 0.579629 12.2491 1.50001 10.2169C2.41408 8.17859 3.75683 6.34469 5.37064 4.80819C8.59827 1.73517 13.0363 -0.0305771 17.4995 0.000400892Z" fill="url(#paint0_linear_15_15)"/>
<path d="M16.5539 4.02734C16.8061 5.16114 16.97 6.30113 17.0961 7.43492C17.2347 8.56872 17.3167 9.70871 17.386 10.8425C17.5121 13.1163 17.5247 15.3839 17.4428 17.6577L16.5476 16.7779C18.2308 16.8213 19.9076 16.9266 21.5908 17.0505C23.2739 17.193 24.9508 17.3665 26.634 17.6515C24.9508 17.9427 23.2739 18.1161 21.5908 18.2524C19.9076 18.3825 18.2308 18.4817 16.5476 18.525L15.6903 18.5436L15.6588 17.6453C15.5768 15.3715 15.5894 13.1039 15.7155 10.8301C15.7911 9.69632 15.8668 8.55633 16.0055 7.42253C16.1379 6.30113 16.3018 5.16114 16.5539 4.02734Z" fill="url(#paint1_linear_15_15)"/>
<defs>
<linearGradient id="paint0_linear_15_15" x1="6.15183" y1="3.03389" x2="27.9037" y2="31.151" gradientUnits="userSpaceOnUse">
<stop stop-color="#CFA53E"/>
<stop offset="0.919" stop-color="#F4E084"/>
</linearGradient>
<linearGradient id="paint1_linear_15_15" x1="15.6083" y1="11.2924" x2="26.6385" y2="11.2924" gradientUnits="userSpaceOnUse">
<stop stop-color="#2A7E91"/>
<stop offset="0.7465" stop-color="#0B5267"/>
<stop offset="1" stop-color="#004258"/>
</linearGradient>
</defs>
</svg>
