<svg width="1728" height="478" viewBox="0 0 1728 478" fill="none" xmlns="http://www.w3.org/2000/svg">
<g clip-path="url(#clip0_12_2)">
<path d="M1727.07 265.686C1726.72 265.928 1726.34 266.17 1726 266.377C1726.34 266.446 1726.72 266.515 1727.07 266.619L1728 477.758H1009.22C1008.88 478.622 1004.56 476.895 1004.21 477.758H0.552979V149.546C60.3072 158.251 106.203 209.861 106.203 272.284C106.203 284.859 104.337 296.984 100.881 308.384C155.624 312.771 203.075 343.136 230.964 387.216C254.431 370.53 283.081 360.754 314.012 360.754C326.661 360.754 338.895 362.378 350.577 365.452C384.169 309.593 445.167 272.284 514.909 272.284C539.343 272.284 562.706 276.879 584.202 285.239C622.771 211.036 700.116 160.393 789.247 160.393C861.132 160.393 925.379 193.349 967.784 245.028C990.732 235.736 1015.75 230.657 1041.98 230.657C1088.26 230.657 1130.84 246.514 1164.6 273.148C1175.35 267.068 1187.76 263.613 1200.96 263.613C1224.53 263.613 1245.51 274.599 1259.12 291.768C1275.64 285.342 1293.65 281.819 1312.42 281.819C1343.9 281.819 1373.1 291.699 1397.05 308.557C1419.97 247.826 1478.44 204.645 1546.97 204.645C1556.31 204.645 1565.46 205.44 1574.38 206.994C1572.03 198.358 1570.75 189.307 1570.75 179.945C1570.75 123.671 1616.2 78.0374 1672.29 78.0374C1692.47 78.0374 1711.27 83.9446 1727.1 94.1354V265.686H1727.07Z" fill="url(#paint0_linear_12_2)"/>
<path d="M546.635 215.388C530.531 215.388 515.843 221.468 504.749 231.486C488.125 211.588 463.104 198.91 435.11 198.91C401.795 198.91 372.695 216.874 356.936 243.612C342.662 224.267 322.168 209.758 298.426 203.056C286.779 123.222 218.004 61.9047 134.888 61.9047C118.368 61.9047 102.401 64.3229 87.3331 68.8483C77.2762 48.2594 56.1254 34.0959 31.657 34.0959C20.0794 34.0959 9.26208 37.2741 0 42.8013V149.926C59.8925 158.735 105.857 210.31 105.857 272.63C105.857 285.204 103.991 297.329 100.5 308.729C155.485 313.116 203.144 343.482 231.137 387.561C254.707 370.876 283.461 361.099 314.531 361.099C327.214 361.099 339.517 362.723 351.268 365.798C384.998 309.938 446.273 272.63 516.292 272.63C540.829 272.63 564.296 277.224 585.861 285.584C591.425 274.91 597.784 264.753 604.869 255.15C595.78 231.866 573.143 215.388 546.635 215.388Z" fill="url(#paint1_linear_12_2)"/>
<path d="M1727.79 202.123V19.0343C1710.06 7.01265 1688.67 0 1665.62 0C1623.87 0 1587.51 23.0416 1568.64 57.103C1566.12 60.3848 1563.91 63.9084 1562.04 67.6392C1546.97 63.1138 1531.01 60.6957 1514.45 60.6957C1431.23 60.6957 1362.36 122.013 1350.71 201.847C1326.93 208.549 1306.44 223.057 1292.13 242.403C1276.37 215.665 1247.2 197.701 1213.85 197.701C1185.82 197.701 1160.8 210.379 1144.14 230.277C1133.05 220.259 1118.36 214.179 1102.22 214.179C1085.77 214.179 1070.84 220.501 1059.64 230.865C1098.07 234.837 1133.26 249.692 1162.08 272.284C1172.9 266.239 1185.34 262.75 1198.64 262.75C1222.32 262.75 1243.43 273.735 1257.12 290.904C1273.74 284.479 1291.82 280.955 1310.72 280.955C1342.38 280.955 1371.72 290.835 1395.84 307.693C1418.9 246.997 1477.68 203.816 1546.59 203.816C1552.16 203.816 1567.88 205.854 1573.31 206.407C1579.25 203.747 1575.9 199.74 1571.44 193.141C1570.82 188.547 1570.48 183.849 1570.48 179.082C1570.48 122.808 1616.2 77.1737 1672.57 77.1737C1692.85 77.1737 1711.76 83.0809 1727.65 93.2717V202.192C1727.72 202.192 1727.76 202.158 1727.79 202.123Z" fill="url(#paint2_linear_12_2)"/>
</g>
<defs>
<linearGradient id="paint0_linear_12_2" x1="867.784" y1="192.752" x2="850.453" y2="789.193" gradientUnits="userSpaceOnUse">
<stop stop-color="white"/>
<stop offset="1" stop-color="white" stop-opacity="0"/>
</linearGradient>
<linearGradient id="paint1_linear_12_2" x1="384.818" y1="-22.6616" x2="137.674" y2="492.661" gradientUnits="userSpaceOnUse">
<stop stop-color="white"/>
<stop offset="1" stop-color="white" stop-opacity="0"/>
</linearGradient>
<linearGradient id="paint2_linear_12_2" x1="1348.21" y1="36.8775" x2="1512.11" y2="354.405" gradientUnits="userSpaceOnUse">
<stop stop-color="white"/>
<stop offset="1" stop-color="white" stop-opacity="0"/>
</linearGradient>
<clipPath id="clip0_12_2">
<rect width="1728" height="478" fill="white"/>
</clipPath>
</defs>
</svg>
