<svg width="140" height="161" viewBox="0 0 140 161" fill="none" xmlns="http://www.w3.org/2000/svg">
<g clip-path="url(#clip0_214_128)">
<path d="M93.7918 153.003L90.3873 149.666L93.7918 146.204L97.2075 149.666L93.7918 153.003Z" fill="url(#paint0_linear_214_128)"/>
<path d="M74.8981 8.50643C74.6839 8.81184 74.4923 9.03808 74.2894 9.24169C73.2071 10.305 71.9107 10.848 70.4565 10.848C68.9685 10.848 67.6833 10.305 66.6237 9.24169C65.564 8.17839 65.0342 6.88885 65.0342 5.3957C65.0342 3.87993 65.5753 2.59039 66.635 1.54971C67.503 0.667393 68.5401 0.135741 69.7012 0H69.7238C69.7914 0 69.8478 0.045247 69.859 0.101806C69.8816 0.169676 69.8478 0.248858 69.7801 0.271482C68.1681 1.0633 67.1761 2.68088 67.1761 4.49076C67.1761 7.10377 69.2954 9.21907 71.8882 9.21907C72.8802 9.21907 73.8159 8.91365 74.6726 8.2915C74.7065 8.26888 74.7403 8.25757 74.7628 8.25757C74.7854 8.25757 74.8305 8.25757 74.8643 8.30282C74.9319 8.37069 74.9319 8.44987 74.8981 8.50643Z" fill="url(#paint1_linear_214_128)"/>
<path d="M55.9932 71.4224C55.9932 70.4043 55.9594 67.9157 54.2346 67.6782V66.1737C58.2366 66.1737 60.0064 68.7188 60.0064 71.4224V91.184C59.8824 96.2177 55.858 101.104 50.8076 101.104H13.3924C12.3778 101.104 11.2956 101.048 10.281 100.539H10.3148C6.31291 98.8646 5.56889 95.505 5.56889 92.564C5.56889 91.2745 5.60271 89.3288 5.71544 86.8063C5.68162 85.7883 5.56889 84.7702 5.11796 84.5327L5.20815 84.5666C4.52049 84.2386 3.79902 84.1141 3.29173 84.1141C2.42371 84.1141 1.64587 84.6797 0.958209 85.7656L0 84.8607C0.868025 83.0056 2.51389 81.207 5.05033 81.207C8.84934 81.207 9.44682 84.4422 9.44682 87.2588C9.44682 88.6388 9.39045 89.8039 9.39045 90.7315C9.39045 91.9645 9.42427 92.7676 9.48063 93.1861V93.2201C9.75119 95.0752 10.6418 96.9416 13.0655 97.0548H50.7062C53.5132 96.9643 55.9932 94.4757 55.9932 91.2405V71.4224Z" fill="url(#paint2_linear_214_128)"/>
<path d="M72.1362 98.4687C72.1362 108.966 65.44 117.393 56.478 117.393C54.6855 117.393 52.7466 116.941 50.3229 116.047L51.2473 114.486C52.7466 115.21 54.0543 115.561 55.1928 115.561C58.5071 115.561 61.5621 113.762 63.9745 111.217C66.5448 108.129 68.0441 103.695 68.0441 98.4687V80.8677H72.1362V98.4687ZM70.0733 77.5759L66.759 74.3069L70.0733 70.9812L73.3875 74.3069L70.0733 77.5759Z" fill="url(#paint3_linear_214_128)"/>
<path d="M84.0856 91.0708C84.1195 94.306 86.4192 96.7041 89.4065 96.7041H91.1989V100.754H89.4065C84.2322 100.754 80.0273 95.8331 80.0273 91.0708V72.3273C80.0273 68.2211 82.3271 66.6261 85.8893 66.5356V68.1193C84.9086 68.1758 84.4802 68.8093 84.3111 69.6803V69.6464C84.1646 70.5739 84.0744 71.2979 84.0744 72.5196C84.0744 72.9946 84.0744 73.5715 84.1082 74.2276V90.0641V91.0708H84.0856Z" fill="url(#paint4_linear_214_128)"/>
<path d="M115.583 100.754H109.574C106.767 100.754 104.377 99.5546 102.821 97.2809C101.209 99.136 98.5152 100.754 96.0689 100.754H90.7819V96.704H96.0464C98.7406 96.6135 100.916 94.1589 100.916 90.6749V82.2815H104.918V91.7268C104.918 94.3964 107.015 96.6135 109.608 96.704H115.583V100.754ZM103.024 77.689L99.6425 74.2955L103.024 71.0264L106.372 74.2955L103.024 77.689Z" fill="url(#paint5_linear_214_128)"/>
<path d="M120.543 96.7041C120.543 94.306 120.543 91.9645 120.543 89.6003C120.543 84.4761 124.939 80.0985 129.99 80.0985H136.449C137.351 79.5555 138.568 79.3519 139.977 79.137V80.664C138.275 80.9582 138.241 83.7521 138.241 86.6366L138.095 92.0323C137.948 96.8059 134.025 100.754 129.313 100.754H115.177V96.7041H120.543ZM130.463 84.1367C127.081 84.1367 124.511 86.5688 124.545 89.6569L124.578 96.7041H129.178C131.838 96.7041 134.104 94.7585 134.104 92.0889V85.2566C134.104 84.8946 134.138 84.4422 134.161 84.1481H130.463V84.1367Z" fill="url(#paint6_linear_214_128)"/>
<path d="M22.3207 141.069C22.3207 151.566 15.6245 159.993 6.66241 159.993C4.86999 159.993 2.93103 159.541 0.507324 158.647L1.43171 157.086C2.93103 157.81 4.2387 158.161 5.37728 158.161C8.69156 158.161 11.7466 156.362 14.159 153.817C16.7292 150.729 18.2286 146.295 18.2286 141.069V123.468H22.3207V141.069Z" fill="url(#paint7_linear_214_128)"/>
<path d="M29.6706 116.251C29.6706 114.124 29.6706 112.71 29.5466 111.783L29.5804 111.873C29.3099 110.821 28.9491 110.255 27.9346 110.074V108.661C31.79 108.785 33.7064 110.787 33.7064 114.712V143.354H29.6706V116.251Z" fill="url(#paint8_linear_214_128)"/>
<path d="M47.8991 139.304H55.7001V143.354H47.8991C47.8428 148.387 46.3773 152.505 43.2997 155.831V155.797C40.3687 159.1 36.7839 160.74 32.5452 160.74C30.719 160.74 28.78 160.287 26.4803 159.416L27.3822 157.855C28.7913 158.545 30.0426 158.907 31.2376 158.907C38.0239 158.907 43.9085 152.641 43.9085 142.777V123.434H47.9104V139.304H47.8991Z" fill="url(#paint9_linear_214_128)"/>
<path d="M103.024 126.861C101.052 127.246 101.052 129.893 101.052 132.856V134.236C101.052 139.214 97.1061 143.354 91.695 143.354H55.1929V139.304H91.7063C94.874 139.304 97.0272 137.2 97.0272 133.965V131.205C97.0272 127.37 99.6876 125.719 103.036 125.538V126.861H103.024Z" fill="url(#paint10_linear_214_128)"/>
<path d="M135.964 116.251C135.964 114.124 135.964 112.71 135.84 111.783L135.874 111.873C135.603 110.821 135.243 110.255 134.228 110.074V108.661C138.084 108.785 140 110.787 140 114.712V160.672H135.964V116.251Z" fill="url(#paint11_linear_214_128)"/>
<path d="M84.142 60.3481L84.1758 60.4386C84.0857 59.7259 84.0631 58.7192 84.0631 57.3279L84.1308 28.1436C84.1308 19.5466 72.2602 13.2686 70.9075 12.5786L69.9831 12.1035L69.0587 12.5786C67.7059 13.2686 55.8354 19.5466 55.8354 28.1436L55.8692 55.7442V55.9704C55.8692 58.0971 55.8692 59.511 55.7452 60.4386L55.779 60.3481C55.5085 61.4001 55.1478 61.9657 54.1332 62.1467V63.5606C57.9886 63.4362 59.905 61.434 59.905 57.5088V55.7555L59.9388 28.1549C59.9388 23.4492 66.511 18.7435 69.9944 16.764C73.4777 18.7435 80.0499 23.4492 80.0499 28.1549V28.8788V57.5202C80.0499 61.4453 81.9663 63.4588 85.8217 63.5719V62.158C84.7733 61.977 84.4126 61.4001 84.142 60.3481Z" fill="url(#paint12_linear_214_128)"/>
<path d="M118.108 161C113.091 161 109.022 156.905 109.022 151.883C109.022 146.849 113.102 142.766 118.108 142.766C123.124 142.766 127.194 146.86 127.194 151.883C127.194 156.916 123.113 161 118.108 161ZM118.108 146.917C115.38 146.917 113.159 149.145 113.159 151.883C113.159 154.62 115.38 156.849 118.108 156.849C120.836 156.849 123.057 154.62 123.057 151.883C123.057 149.145 120.836 146.917 118.108 146.917Z" fill="url(#paint13_linear_214_128)"/>
<path d="M123.158 114.69V115.176V137.766C123.158 140.56 120.892 142.845 118.108 142.845C115.323 142.845 113.046 140.571 113.046 137.766V115.176V116.251C113.046 114.124 113.046 112.71 113.17 111.783L113.136 111.873C113.407 110.821 113.768 110.255 114.782 110.074V108.661C110.927 108.785 109.01 110.787 109.01 114.724V137.766C109.01 140.922 110.611 143.704 113.046 145.345C114.489 146.317 116.236 146.883 118.108 146.883C119.979 146.883 121.715 146.317 123.158 145.345C125.514 143.761 127.092 141.091 127.194 138.06C127.194 137.958 127.194 137.867 127.194 137.766C127.194 137.664 127.194 137.573 127.194 137.472V116.217C127.194 114.09 127.194 112.676 127.318 111.749L127.284 111.839C127.555 110.787 127.915 110.222 128.93 110.041V108.627C125.074 108.751 123.158 110.753 123.158 114.69Z" fill="url(#paint14_linear_214_128)"/>
</g>
<defs>
<linearGradient id="paint0_linear_214_128" x1="135.834" y1="149.605" x2="27.4118" y2="149.605" gradientUnits="userSpaceOnUse">
<stop stop-color="#CFA53E"/>
<stop offset="0.919" stop-color="#F4E084"/>
</linearGradient>
<linearGradient id="paint1_linear_214_128" x1="60.494" y1="-10.2939" x2="129.179" y2="118.393" gradientUnits="userSpaceOnUse">
<stop stop-color="white"/>
<stop offset="1" stop-color="#E6E6E6"/>
</linearGradient>
<linearGradient id="paint2_linear_214_128" x1="29.9976" y1="67.4828" x2="29.9976" y2="107.036" gradientUnits="userSpaceOnUse">
<stop stop-color="white"/>
<stop offset="1" stop-color="#E6E6E6"/>
</linearGradient>
<linearGradient id="paint3_linear_214_128" x1="61.8527" y1="67.6956" x2="61.8527" y2="113.697" gradientUnits="userSpaceOnUse">
<stop stop-color="white"/>
<stop offset="1" stop-color="#E6E6E6"/>
</linearGradient>
<linearGradient id="paint4_linear_214_128" x1="85.6063" y1="67.6956" x2="85.6063" y2="113.697" gradientUnits="userSpaceOnUse">
<stop stop-color="white"/>
<stop offset="1" stop-color="#E6E6E6"/>
</linearGradient>
<linearGradient id="paint5_linear_214_128" x1="103.178" y1="67.6955" x2="103.178" y2="113.697" gradientUnits="userSpaceOnUse">
<stop stop-color="white"/>
<stop offset="1" stop-color="#E6E6E6"/>
</linearGradient>
<linearGradient id="paint6_linear_214_128" x1="127.564" y1="67.6956" x2="127.564" y2="113.697" gradientUnits="userSpaceOnUse">
<stop stop-color="white"/>
<stop offset="1" stop-color="#E6E6E6"/>
</linearGradient>
<linearGradient id="paint7_linear_214_128" x1="135.834" y1="141.734" x2="27.4118" y2="141.734" gradientUnits="userSpaceOnUse">
<stop stop-color="#CFA53E"/>
<stop offset="0.919" stop-color="#F4E084"/>
</linearGradient>
<linearGradient id="paint8_linear_214_128" x1="135.834" y1="126.007" x2="27.4117" y2="126.007" gradientUnits="userSpaceOnUse">
<stop stop-color="#CFA53E"/>
<stop offset="0.919" stop-color="#F4E084"/>
</linearGradient>
<linearGradient id="paint9_linear_214_128" x1="135.834" y1="142.094" x2="27.4117" y2="142.094" gradientUnits="userSpaceOnUse">
<stop stop-color="#CFA53E"/>
<stop offset="0.919" stop-color="#F4E084"/>
</linearGradient>
<linearGradient id="paint10_linear_214_128" x1="135.834" y1="134.448" x2="27.4118" y2="134.448" gradientUnits="userSpaceOnUse">
<stop stop-color="#CFA53E"/>
<stop offset="0.919" stop-color="#F4E084"/>
</linearGradient>
<linearGradient id="paint11_linear_214_128" x1="135.834" y1="134.667" x2="27.4117" y2="134.667" gradientUnits="userSpaceOnUse">
<stop stop-color="#CFA53E"/>
<stop offset="0.919" stop-color="#F4E084"/>
</linearGradient>
<linearGradient id="paint12_linear_214_128" x1="55.8705" y1="19.6102" x2="80.7607" y2="66.2437" gradientUnits="userSpaceOnUse">
<stop stop-color="white"/>
<stop offset="1" stop-color="#E6E6E6"/>
</linearGradient>
<linearGradient id="paint13_linear_214_128" x1="158.777" y1="147.8" x2="-19.7021" y2="165.587" gradientUnits="userSpaceOnUse">
<stop stop-color="#CFA53E"/>
<stop offset="0.919" stop-color="#F4E084"/>
</linearGradient>
<linearGradient id="paint14_linear_214_128" x1="135.834" y1="127.758" x2="27.4117" y2="127.758" gradientUnits="userSpaceOnUse">
<stop stop-color="#CFA53E"/>
<stop offset="0.919" stop-color="#F4E084"/>
</linearGradient>
<clipPath id="clip0_214_128">
<rect width="140" height="161" fill="white"/>
</clipPath>
</defs>
</svg>
