<svg width="94" height="107" viewBox="0 0 94 107" fill="none" xmlns="http://www.w3.org/2000/svg">
<g clip-path="url(#clip0_214_79)">
<path d="M62.9776 101.686L60.6902 99.4621L62.9776 97.1664L65.269 99.4621L62.9776 101.686Z" fill="url(#paint0_linear_214_79)"/>
<path d="M50.2864 5.65343C50.1416 5.85306 50.013 6.00478 49.8763 6.14052C49.1487 6.8472 48.2804 7.20653 47.2995 7.20653C46.3025 7.20653 45.4342 6.8472 44.7267 6.14452C44.0192 5.44183 43.6573 4.57944 43.6573 3.58929C43.6573 2.58317 44.0191 1.72478 44.7307 1.03007C45.3257 0.443172 46.0211 0.0958209 46.805 0H46.8211C46.8653 0 46.9015 0.0279478 46.9136 0.0678731C46.9296 0.111791 46.9055 0.163694 46.8653 0.183657C45.7839 0.710672 45.1166 1.78466 45.1166 2.98642C45.1166 4.71918 46.5357 6.13254 48.2844 6.13254C48.9517 6.13254 49.5828 5.92493 50.1577 5.51769C50.1778 5.50172 50.2019 5.49772 50.214 5.49772C50.2301 5.49772 50.2582 5.50172 50.2823 5.52966C50.3105 5.5616 50.3145 5.61351 50.2864 5.65343Z" fill="url(#paint1_linear_214_79)"/>
<path d="M37.5952 47.4673C37.5952 46.7885 37.5751 45.1356 36.4133 44.9759V43.9778C39.1027 43.9778 40.2846 45.6706 40.2846 47.4633V60.5987C40.2042 63.9485 37.4947 67.1944 34.1058 67.1944H8.98875C8.30535 67.1944 7.58577 67.1545 6.90236 66.8151H6.92246C4.23307 65.6972 3.73057 63.4654 3.73057 61.513C3.73057 60.6546 3.75067 59.361 3.83107 57.6882C3.81097 57.0094 3.73057 56.3347 3.42907 56.175L3.48937 56.1949C3.02707 55.9754 2.54467 55.8955 2.20699 55.8955C1.62409 55.8955 1.1055 56.2748 0.643202 56.9895L0 56.3906C0.582902 55.1569 1.68439 53.9591 3.39289 53.9591C5.94158 53.9591 6.34358 56.1111 6.34358 57.9836C6.34358 58.9019 6.30338 59.6764 6.30338 60.2953C6.30338 61.1138 6.32348 61.6488 6.36368 61.9282V61.9482C6.54458 63.1819 7.14759 64.4196 8.77167 64.4994H34.0455C35.9309 64.4395 37.5952 62.7866 37.5952 60.6346V47.4673Z" fill="url(#paint2_linear_214_79)"/>
<path d="M48.4331 65.4417C48.4331 72.4167 43.9387 78.0182 37.9208 78.0182C36.7188 78.0182 35.4123 77.7187 33.7882 77.1199L34.4113 76.0818C35.4163 76.5609 36.2967 76.8005 37.0605 76.8005C39.2876 76.8005 41.3338 75.6067 42.9579 73.9099C44.6824 71.8577 45.6875 68.9072 45.6875 65.4417V53.7436H48.4371V65.4417H48.4331ZM47.0502 51.5517L44.8231 49.3797L47.0502 47.1678L49.2773 49.3797L47.0502 51.5517Z" fill="url(#paint3_linear_214_79)"/>
<path d="M56.4571 60.5189C56.4772 62.6709 58.0209 64.2639 60.0269 64.2639H61.2289V66.9548H60.0269C56.5576 66.9548 53.7275 63.685 53.7275 60.5189V48.0622C53.7275 45.3313 55.2712 44.2772 57.6591 44.2173V45.2754C56.9958 45.3153 56.7144 45.7345 56.5938 46.3134V46.2935C56.4933 46.9123 56.433 47.3914 56.433 48.2059C56.433 48.5253 56.433 48.9046 56.4531 49.3438V59.8641V60.5189H56.4571Z" fill="url(#paint4_linear_214_79)"/>
<path d="M77.6063 66.9589H73.5743C71.6889 66.9589 70.0849 66.1603 69.0397 64.6472C67.9543 65.8809 66.1493 66.9589 64.5051 66.9589H60.9554V64.2679H64.489C66.294 64.208 67.7613 62.575 67.7613 60.2634V54.6818H70.4507V60.9581C70.4507 62.7307 71.8537 64.208 73.6024 64.2679H77.6144V66.9589H77.6063ZM69.1804 51.6315L66.9131 49.3797L69.1804 47.2078L71.4276 49.3797L69.1804 51.6315Z" fill="url(#paint5_linear_214_79)"/>
<path d="M80.939 64.2679C80.939 62.6748 80.939 61.1178 80.939 59.5447C80.939 56.1351 83.8896 53.2285 87.2785 53.2285H91.6121C92.2151 52.8692 93.0352 52.7294 93.9799 52.5897V53.6078C92.8382 53.8074 92.8181 55.66 92.8181 57.5724L92.7176 61.1577C92.6171 64.3277 89.988 66.9548 86.8202 66.9548H77.329V64.2639H80.939V64.2679ZM87.6001 55.9155C85.3328 55.9155 83.6082 57.5285 83.6283 59.5806L83.6484 64.2639H86.7398C88.5247 64.2639 90.0523 62.9703 90.0523 61.1936V56.6541C90.0523 56.4145 90.0724 56.1151 90.0925 55.9155H87.6001Z" fill="url(#paint6_linear_214_79)"/>
<path d="M14.9866 93.7568C14.9866 100.732 10.4922 106.333 4.47425 106.333C3.27227 106.333 1.96576 106.034 0.341675 105.435L0.964777 104.397C1.96978 104.876 2.85016 105.116 3.61397 105.116C5.84105 105.116 7.88724 103.922 9.51133 102.225C11.2359 100.173 12.2409 97.2223 12.2409 93.7568V82.0586H14.9906V93.7568H14.9866Z" fill="url(#paint7_linear_214_79)"/>
<path d="M19.9231 77.2556C19.9231 75.8422 19.9231 74.904 19.8427 74.2851L19.8628 74.345C19.6819 73.6463 19.4407 73.267 18.7614 73.1513V72.213C21.3502 72.2929 22.6326 73.6264 22.6326 76.2375V95.2699H19.9231V77.2556Z" fill="url(#paint8_linear_214_79)"/>
<path d="M32.1601 92.579H37.3982V95.2699H32.1601C32.1199 98.6197 31.135 101.347 29.0687 103.558V103.538C27.1029 105.73 24.6949 106.828 21.8447 106.828C20.6227 106.828 19.3161 106.529 17.7725 105.95L18.3755 104.912C19.3202 105.371 20.1604 105.611 20.9644 105.611C25.519 105.611 29.4707 101.446 29.4707 94.8906V82.0387H32.1601V92.579Z" fill="url(#paint9_linear_214_79)"/>
<path d="M69.1805 84.3104C67.8579 84.5699 67.8579 86.3226 67.8579 88.295V89.2132C67.8579 92.5231 65.2087 95.2699 61.5786 95.2699H37.0565V92.5789H61.5746C63.7012 92.5789 65.1444 91.1856 65.1444 89.0336V87.201C65.1444 84.6498 66.9292 83.5558 69.1764 83.436V84.3104H69.1805Z" fill="url(#paint10_linear_214_79)"/>
<path d="M91.2904 77.2556C91.2904 75.8422 91.2904 74.904 91.21 74.2851L91.2301 74.345C91.0492 73.6463 90.808 73.267 90.1287 73.1513V72.213C92.7176 72.2929 93.9999 73.6264 93.9999 76.2375V106.78H91.2904V77.2556Z" fill="url(#paint11_linear_214_79)"/>
<path d="M56.4973 40.109L56.5174 40.1689C56.4571 39.6938 56.441 39.0271 56.437 38.1008L56.4812 18.705C56.4812 12.9917 48.5095 8.81952 47.601 8.36437L46.9779 8.05295L46.3548 8.36437C45.4463 8.81952 37.4746 12.9917 37.4746 18.705L37.4947 37.0507V37.1985C37.4947 38.6118 37.4947 39.5501 37.4143 40.1689L37.4344 40.109C37.2535 40.8077 37.0123 41.187 36.3329 41.3028V42.241C38.9218 42.1612 40.2042 40.8277 40.2042 38.2166V37.0507L40.2283 18.705C40.2283 15.5789 44.6423 12.4487 46.9779 11.1352C49.3135 12.4527 53.7275 15.5789 53.7275 18.705V19.1841H53.7235V38.2166C53.7235 40.8277 55.0059 42.1612 57.5947 42.241V41.3028C56.9194 41.187 56.6782 40.8077 56.4973 40.109Z" fill="url(#paint12_linear_214_79)"/>
<path d="M79.2988 107C75.934 107 73.1924 104.281 73.1924 100.935C73.1924 97.5936 75.93 94.8707 79.2988 94.8707C82.6676 94.8707 85.4052 97.5896 85.4052 100.935C85.4052 104.281 82.6676 107 79.2988 107ZM79.2988 97.6375C77.4657 97.6375 75.9742 99.1187 75.9742 100.939C75.9742 102.76 77.4657 104.241 79.2988 104.241C81.1319 104.241 82.6233 102.76 82.6233 100.939C82.6233 99.1187 81.1319 97.6375 79.2988 97.6375Z" fill="url(#paint13_linear_214_79)"/>
<path d="M82.6957 76.2176V76.541V91.5569C82.6957 93.4174 81.1721 94.9306 79.3028 94.9306C77.4295 94.9306 75.9059 93.4174 75.9059 91.5569V76.5449V77.2556C75.9059 75.8423 75.9059 74.904 75.9863 74.2852L75.9662 74.3451C76.1471 73.6464 76.3883 73.2711 77.0677 73.1513V72.213C74.4788 72.2929 73.1964 73.6264 73.1964 76.2375V91.5529C73.1964 93.649 74.2738 95.4975 75.9059 96.5915C76.8787 97.2383 78.0445 97.6176 79.3028 97.6176C80.5611 97.6176 81.7229 97.2383 82.6957 96.5915C84.2796 95.5374 85.3369 93.7648 85.4052 91.7485C85.4052 91.6846 85.4092 91.6168 85.4092 91.5529C85.4092 91.489 85.4092 91.4211 85.4052 91.3573V77.2317C85.4052 75.8183 85.4052 74.8801 85.4856 74.2612L85.4655 74.3211C85.6464 73.6224 85.8876 73.2471 86.567 73.1273V72.1891C83.9781 72.2729 82.6957 73.6064 82.6957 76.2176Z" fill="url(#paint14_linear_214_79)"/>
</g>
<defs>
<linearGradient id="paint0_linear_214_79" x1="91.206" y1="99.4249" x2="18.4057" y2="99.4249" gradientUnits="userSpaceOnUse">
<stop stop-color="#CFA53E"/>
<stop offset="0.919" stop-color="#F4E084"/>
</linearGradient>
<linearGradient id="paint1_linear_214_79" x1="40.6187" y1="-6.84109" x2="86.0036" y2="79.0696" gradientUnits="userSpaceOnUse">
<stop stop-color="#2A7E91"/>
<stop offset="0.7465" stop-color="#0B5267"/>
<stop offset="1" stop-color="#004258"/>
</linearGradient>
<linearGradient id="paint2_linear_214_79" x1="20.1419" y1="44.8478" x2="20.1419" y2="71.1343" gradientUnits="userSpaceOnUse">
<stop stop-color="#2A7E91"/>
<stop offset="0.7465" stop-color="#0B5267"/>
<stop offset="1" stop-color="#004258"/>
</linearGradient>
<linearGradient id="paint3_linear_214_79" x1="41.5311" y1="44.9892" x2="41.5311" y2="75.5609" gradientUnits="userSpaceOnUse">
<stop stop-color="#2A7E91"/>
<stop offset="0.7465" stop-color="#0B5267"/>
<stop offset="1" stop-color="#004258"/>
</linearGradient>
<linearGradient id="paint4_linear_214_79" x1="57.4805" y1="44.9892" x2="57.4805" y2="75.5609" gradientUnits="userSpaceOnUse">
<stop stop-color="#2A7E91"/>
<stop offset="0.7465" stop-color="#0B5267"/>
<stop offset="1" stop-color="#004258"/>
</linearGradient>
<linearGradient id="paint5_linear_214_79" x1="69.279" y1="44.9892" x2="69.279" y2="75.5609" gradientUnits="userSpaceOnUse">
<stop stop-color="#2A7E91"/>
<stop offset="0.7465" stop-color="#0B5267"/>
<stop offset="1" stop-color="#004258"/>
</linearGradient>
<linearGradient id="paint6_linear_214_79" x1="85.6528" y1="44.9892" x2="85.6528" y2="75.5609" gradientUnits="userSpaceOnUse">
<stop stop-color="#2A7E91"/>
<stop offset="0.7465" stop-color="#0B5267"/>
<stop offset="1" stop-color="#004258"/>
</linearGradient>
<linearGradient id="paint7_linear_214_79" x1="91.2059" y1="94.1938" x2="18.4056" y2="94.1938" gradientUnits="userSpaceOnUse">
<stop stop-color="#CFA53E"/>
<stop offset="0.919" stop-color="#F4E084"/>
</linearGradient>
<linearGradient id="paint8_linear_214_79" x1="91.2059" y1="83.7415" x2="18.4056" y2="83.7415" gradientUnits="userSpaceOnUse">
<stop stop-color="#CFA53E"/>
<stop offset="0.919" stop-color="#F4E084"/>
</linearGradient>
<linearGradient id="paint9_linear_214_79" x1="91.2059" y1="94.4329" x2="18.4056" y2="94.4329" gradientUnits="userSpaceOnUse">
<stop stop-color="#CFA53E"/>
<stop offset="0.919" stop-color="#F4E084"/>
</linearGradient>
<linearGradient id="paint10_linear_214_79" x1="91.206" y1="89.3512" x2="18.4057" y2="89.3512" gradientUnits="userSpaceOnUse">
<stop stop-color="#CFA53E"/>
<stop offset="0.919" stop-color="#F4E084"/>
</linearGradient>
<linearGradient id="paint11_linear_214_79" x1="91.2059" y1="89.4974" x2="18.4055" y2="89.4974" gradientUnits="userSpaceOnUse">
<stop stop-color="#CFA53E"/>
<stop offset="0.919" stop-color="#F4E084"/>
</linearGradient>
<linearGradient id="paint12_linear_214_79" x1="37.5143" y1="13.0326" x2="53.9608" y2="44.1649" gradientUnits="userSpaceOnUse">
<stop stop-color="#2A7E91"/>
<stop offset="0.7465" stop-color="#0B5267"/>
<stop offset="1" stop-color="#004258"/>
</linearGradient>
<linearGradient id="paint13_linear_214_79" x1="106.611" y1="98.2248" x2="-13.2045" y2="110.289" gradientUnits="userSpaceOnUse">
<stop stop-color="#CFA53E"/>
<stop offset="0.919" stop-color="#F4E084"/>
</linearGradient>
<linearGradient id="paint14_linear_214_79" x1="91.206" y1="84.9053" x2="18.4056" y2="84.9053" gradientUnits="userSpaceOnUse">
<stop stop-color="#CFA53E"/>
<stop offset="0.919" stop-color="#F4E084"/>
</linearGradient>
<clipPath id="clip0_214_79">
<rect width="94" height="107" fill="white"/>
</clipPath>
</defs>
</svg>
